<svg width="50" height="50" fill="none" xmlns="http://www.w3.org/2000/svg"><path fill-rule="evenodd" clip-rule="evenodd" d="M4.167 12.5A8.333 8.333 0 0112.5 4.167h25a8.333 8.333 0 018.333 8.333v25a8.333 8.333 0 01-8.333 8.333h-25A8.333 8.333 0 014.167 37.5v-25zM12.5 8.333A4.167 4.167 0 008.333 12.5v25a4.167 4.167 0 004.167 4.167H25V27.083h-2.083a2.083 2.083 0 010-4.166H25v-3.125a7.291 7.291 0 017.292-7.292h1.25a2.083 2.083 0 010 4.167h-1.25a3.126 3.126 0 00-3.125 3.125v3.125h4.375a2.083 2.083 0 010 4.166h-4.375v14.584H37.5a4.167 4.167 0 004.167-4.167v-25A4.167 4.167 0 0037.5 8.333h-25z" fill="#4C52ED"/></svg>